<svg width="791" height="143" viewBox="0 0 791 143" fill="none" xmlns="http://www.w3.org/2000/svg">
  <style>
    .header { font: 600 18px 'Segoe UI', Ubuntu, Sans-Serif; fill: #ff6e96; }
    .tick { font: 400 10px 'Segoe UI', Ubuntu, Sans-Serif; fill: #8b8fa3; }
  </style>
  <rect x="0.5" y="0.5" width="790" height="142" rx="4.5" fill="#282a36" stroke="#e4e2e2" stroke-opacity="0.15"/>
  <text x="25" y="35" class="header">Contribution Calendar</text>
  <g transform="translate(25, 45)">
    <text x="20" y="11" class="tick">Jul</text>
    <text x="76" y="11" class="tick">Aug</text>
    <text x="146" y="11" class="tick">Sep</text>
    <text x="202" y="11" class="tick">Oct</text>
    <text x="258" y="11" class="tick">Nov</text>
    <text x="328" y="11" class="tick">Dec</text>
    <text x="384" y="11" class="tick">Jan</text>
    <text x="440" y="11" class="tick">Feb</text>
    <text x="496" y="11" class="tick">Mar</text>
    <text x="566" y="11" class="tick">Apr</text>
    <text x="622" y="11" class="tick">May</text>
    <text x="692" y="11" class="tick">Jun</text>
    <text x="748" y="11" class="tick">Jul</text>
    <text x="0" y="37" class="tick">Mon</text>
    <text x="0" y="65" class="tick">Wed</text>
    <text x="0" y="93" class="tick">Fri</text>
    <rect x="20" y="99" width="11" height="11" rx="2" fill="#ff6e96"/>
    <rect x="34" y="15" width="11" height="11" rx="2" fill="#ff6e96"/>
    <rect x="34" y="29" width="11" height="11" rx="2" fill="#2d303e"/>
    <rect x="34" y="43" width="11" height="11" rx="2" fill="#2d303e"/>
    <rect x="34" y="57" width="11" height="11" rx="2" fill="#2d303e"/>
    <rect x="34" y="71" width="11" height="11" rx="2" fill="#2d303e"/>
    <rect x="34" y="85" width="11" height="11" rx="2" fill="#2d303e"/>
    <rect x="34" y="99" width="11" height="11" rx="2" fill="#ff6e96"/>
    <rect x="48" y="15" width="11" height="11" rx="2" fill="#2d303e"/>
    <rect x="48" y="29" width="11" height="11" rx="2" fill="#2d303e"/>
    <rect x="48" y="43" width="11" height="11" rx="2" fill="#2d303e"/>
    <rect x="48" y="57" width="11" height="11" rx="2" fill="#2d303e"/>
    <rect x="48" y="71" width="11" height="11" rx="2" fill="#ff6e96"/>
    <rect x="48" y="85" width="11" height="11" rx="2" fill="#ff6e96"/>
    <rect x="48" y="99" width="11" height="11" rx="2" fill="#ff6e96"/>
    <rect x="62" y="15" width="11" height="11" rx="2" fill="#ff6e96"/>
    <rect x="62" y="29" width="11" height="11" rx="2" fill="#ff6e96"/>
    <rect x="62" y="43" width="11" height="11" rx="2" fill="#c15a88"/>
    <rect x="62" y="57" width="11" height="11" rx="2" fill="#2d303e"/>
    <rect x="62" y="71" width="11" height="11" rx="2" fill="#2d303e"/>
    <rect x="62" y="85" width="11" height="11" rx="2" fill="#7a4d74"/>
    <rect x="62" y="99" width="11" height="11" rx="2" fill="#ff6e96"/>
    <rect x="76" y="15" width="11" height="11" rx="2" fill="#ff6e96"/>
    <rect x="76" y="29" width="11" height="11" rx="2" fill="#4a3b55"/>
    <rect x="76" y="43" width="11" height="11" rx="2" fill="#2d303e"/>
    <rect x="76" y="57" width="11" height="11" rx="2" fill="#2d303e"/>
    <rect x="76" y="71" width="11" height="11" rx="2" fill="#2d303e"/>
    <rect x="76" y="85" width="11" height="11" rx="2" fill="#7a4d74"/>
    <rect x="76" y="99" width="11" height="11" rx="2" fill="#2d303e"/>
    <rect x="90" y="15" width="11" height="11" rx="2" fill="#2d303e"/>
    <rect x="90" y="29" width="11" height="11" rx="2" fill="#2d303e"/>
    <rect x="90" y="43" width="11" height="11" rx="2" fill="#2d303e"/>
    <rect x="90" y="57" width="11" height="11" rx="2" fill="#2d303e"/>
    <rect x="90" y="71" width="11" height="11" rx="2" fill="#2d303e"/>
    <rect x="90" y="85" width="11" height="11" rx="2" fill="#ff6e96"/>
    <rect x="90" y="99" width="11" height="11" rx="2" fill="#ff6e96"/>
    <rect x="104" y="15" width="11" height="11" rx="2" fill="#c15a88"/>
    <rect x="104" y="29" width="11" height="11" rx="2" fill="#4a3b55"/>
    <rect x="104" y="43" width="11" height="11" rx="2" fill="#4a3b55"/>
    <rect x="104" y="57" width="11" height="11" rx="2" fill="#2d303e"/>
    <rect x="104" y="71" width="11" height="11" rx="2" fill="#2d303e"/>
    <rect x="104" y="85" width="11" height="11" rx="2" fill="#2d303e"/>
    <rect x="104" y="99" width="11" height="11" rx="2" fill="#2d303e"/>
    <rect x="118" y="15" width="11" height="11" rx="2" fill="#ff6e96"/>
    <rect x="118" y="29" width="11" height="11" rx="2" fill="#2d303e"/>
    <rect x="118" y="43" width="11" height="11" rx="2" fill="#2d303e"/>
    <rect x="118" y="57" width="11" height="11" rx="2" fill="#2d303e"/>
    <rect x="118" y="71" width="11" height="11" rx="2" fill="#2d303e"/>
    <rect x="118" y="85" width="11" height="11" rx="2" fill="#7a4d74"/>
    <rect x="118" y="99" width="11" height="11" rx="2" fill="#2d303e"/>
    <rect x="132" y="15" width="11" height="11" rx="2" fill="#ff6e96"/>
    <rect x="132" y="29" width="11" height="11" rx="2" fill="#2d303e"/>
    <rect x="132" y="43" width="11" height="11" rx="2" fill="#2d303e"/>
    <rect x="132" y="57" width="11" height="11" rx="2" fill="#c15a88"/>
    <rect x="132" y="71" width="11" height="11" rx="2" fill="#2d303e"/>
    <rect x="132" y="85" width="11" height="11" rx="2" fill="#2d303e"/>
    <rect x="132" y="99" width="11" height="11" rx="2" fill="#ff6e96"/>
    <rect x="146" y="15" width="11" height="11" rx="2" fill="#ff6e96"/>
    <rect x="146" y="29" width="11" height="11" rx="2" fill="#7a4d74"/>
    <rect x="146" y="43" width="11" height="11" rx="2" fill="#2d303e"/>
    <rect x="146" y="57" width="11" height="11" rx="2" fill="#2d303e"/>
    <rect x="146" y="71" width="11" height="11" rx="2" fill="#2d303e"/>
    <rect x="146" y="85" width="11" height="11" rx="2" fill="#ff6e96"/>
    <rect x="146" y="99" width="11" height="11" rx="2" fill="#ff6e96"/>
    <rect x="160" y="15" width="11" height="11" rx="2" fill="#2d303e"/>
    <rect x="160" y="29" width="11" height="11" rx="2" fill="#2d303e"/>
    <rect x="160" y="43" width="11" height="11" rx="2" fill="#ff6e96"/>
    <rect x="160" y="57" width="11" height="11" rx="2" fill="#2d303e"/>
    <rect x="160" y="71" width="11" height="11" rx="2" fill="#2d303e"/>
    <rect x="160" y="85" width="11" height="11" rx="2" fill="#ff6e96"/>
    <rect x="160" y="99" width="11" height="11" rx="2" fill="#ff6e96"/>
    <rect x="174" y="15" width="11" height="11" rx="2" fill="#ff6e96"/>
    <rect x="174" y="29" width="11" height="11" rx="2" fill="#c15a88"/>
    <rect x="174" y="43" width="11" height="11" rx="2" fill="#ff6e96"/>
    <rect x="174" y="57" width="11" height="11" rx="2" fill="#ff6e96"/>
    <rect x="174" y="71" width="11" height="11" rx="2" fill="#7a4d74"/>
    <rect x="174" y="85" width="11" height="11" rx="2" fill="#ff6e96"/>
    <rect x="174" y="99" width="11" height="11" rx="2" fill="#c15a88"/>
    <rect x="188" y="15" width="11" height="11" rx="2" fill="#ff6e96"/>
    <rect x="188" y="29" width="11" height="11" rx="2" fill="#ff6e96"/>
    <rect x="188" y="43" width="11" height="11" rx="2" fill="#ff6e96"/>
    <rect x="188" y="57" width="11" height="11" rx="2" fill="#2d303e"/>
    <rect x="188" y="71" width="11" height="11" rx="2" fill="#2d303e"/>
    <rect x="188" y="85" width="11" height="11" rx="2" fill="#2d303e"/>
    <rect x="188" y="99" width="11" height="11" rx="2" fill="#ff6e96"/>
    <rect x="202" y="15" width="11" height="11" rx="2" fill="#ff6e96"/>
    <rect x="202" y="29" width="11" height="11" rx="2" fill="#ff6e96"/>
    <rect x="202" y="43" width="11" height="11" rx="2" fill="#4a3b55"/>
    <rect x="202" y="57" width="11" height="11" rx="2" fill="#ff6e96"/>
    <rect x="202" y="71" width="11" height="11" rx="2" fill="#4a3b55"/>
    <rect x="202" y="85" width="11" height="11" rx="2" fill="#4a3b55"/>
    <rect x="202" y="99" width="11" height="11" rx="2" fill="#ff6e96"/>
    <rect x="216" y="15" width="11" height="11" rx="2" fill="#ff6e96"/>
    <rect x="216" y="29" width="11" height="11" rx="2" fill="#c15a88"/>
    <rect x="216" y="43" width="11" height="11" rx="2" fill="#ff6e96"/>
    <rect x="216" y="57" width="11" height="11" rx="2" fill="#ff6e96"/>
    <rect x="216" y="71" width="11" height="11" rx="2" fill="#ff6e96"/>
    <rect x="216" y="85" width="11" height="11" rx="2" fill="#ff6e96"/>
    <rect x="216" y="99" width="11" height="11" rx="2" fill="#ff6e96"/>
    <rect x="230" y="15" width="11" height="11" rx="2" fill="#ff6e96"/>
    <rect x="230" y="29" width="11" height="11" rx="2" fill="#ff6e96"/>
    <rect x="230" y="43" width="11" height="11" rx="2" fill="#4a3b55"/>
    <rect x="230" y="57" width="11" height="11" rx="2" fill="#2d303e"/>
    <rect x="230" y="71" width="11" height="11" rx="2" fill="#2d303e"/>
    <rect x="230" y="85" width="11" height="11" rx="2" fill="#2d303e"/>
    <rect x="230" y="99" width="11" height="11" rx="2" fill="#ff6e96"/>
    <rect x="244" y="15" width="11" height="11" rx="2" fill="#7a4d74"/>
    <rect x="244" y="29" width="11" height="11" rx="2" fill="#7a4d74"/>
    <rect x="244" y="43" width="11" height="11" rx="2" fill="#2d303e"/>
    <rect x="244" y="57" width="11" height="11" rx="2" fill="#4a3b55"/>
    <rect x="244" y="71" width="11" height="11" rx="2" fill="#4a3b55"/>
    <rect x="244" y="85" width="11" height="11" rx="2" fill="#2d303e"/>
    <rect x="244" y="99" width="11" height="11" rx="2" fill="#2d303e"/>
    <rect x="258" y="15" width="11" height="11" rx="2" fill="#4a3b55"/>
    <rect x="258" y="29" width="11" height="11" rx="2" fill="#2d303e"/>
    <rect x="258" y="43" width="11" height="11" rx="2" fill="#2d303e"/>
    <rect x="258" y="57" width="11" height="11" rx="2" fill="#2d303e"/>
    <rect x="258" y="71" width="11" height="11" rx="2" fill="#2d303e"/>
    <rect x="258" y="85" width="11" height="11" rx="2" fill="#c15a88"/>
    <rect x="258" y="99" width="11" height="11" rx="2" fill="#ff6e96"/>
    <rect x="272" y="15" width="11" height="11" rx="2" fill="#ff6e96"/>
    <rect x="272" y="29" width="11" height="11" rx="2" fill="#4a3b55"/>
    <rect x="272" y="43" width="11" height="11" rx="2" fill="#4a3b55"/>
    <rect x="272" y="57" width="11" height="11" rx="2" fill="#2d303e"/>
    <rect x="272" y="71" width="11" height="11" rx="2" fill="#4a3b55"/>
    <rect x="272" y="85" width="11" height="11" rx="2" fill="#ff6e96"/>
    <rect x="272" y="99" width="11" height="11" rx="2" fill="#ff6e96"/>
    <rect x="286" y="15" width="11" height="11" rx="2" fill="#7a4d74"/>
    <rect x="286" y="29" width="11" height="11" rx="2" fill="#2d303e"/>
    <rect x="286" y="43" width="11" height="11" rx="2" fill="#ff6e96"/>
    <rect x="286" y="57" width="11" height="11" rx="2" fill="#2d303e"/>
    <rect x="286" y="71" width="11" height="11" rx="2" fill="#2d303e"/>
    <rect x="286" y="85" width="11" height="11" rx="2" fill="#2d303e"/>
    <rect x="286" y="99" width="11" height="11" rx="2" fill="#ff6e96"/>
    <rect x="300" y="15" width="11" height="11" rx="2" fill="#ff6e96"/>
    <rect x="300" y="29" width="11" height="11" rx="2" fill="#ff6e96"/>
    <rect x="300" y="43" width="11" height="11" rx="2" fill="#2d303e"/>
    <rect x="300" y="57" width="11" height="11" rx="2" fill="#2d303e"/>
    <rect x="300" y="71" width="11" height="11" rx="2" fill="#2d303e"/>
    <rect x="300" y="85" width="11" height="11" rx="2" fill="#7a4d74"/>
    <rect x="300" y="99" width="11" height="11" rx="2" fill="#ff6e96"/>
    <rect x="314" y="15" width="11" height="11" rx="2" fill="#ff6e96"/>
    <rect x="314" y="29" width="11" height="11" rx="2" fill="#4a3b55"/>
    <rect x="314" y="43" width="11" height="11" rx="2" fill="#2d303e"/>
    <rect x="314" y="57" width="11" height="11" rx="2" fill="#2d303e"/>
    <rect x="314" y="71" width="11" height="11" rx="2" fill="#ff6e96"/>
    <rect x="314" y="85" width="11" height="11" rx="2" fill="#2d303e"/>
    <rect x="314" y="99" width="11" height="11" rx="2" fill="#7a4d74"/>
    <rect x="328" y="15" width="11" height="11" rx="2" fill="#ff6e96"/>
    <rect x="328" y="29" width="11" height="11" rx="2" fill="#4a3b55"/>
    <rect x="328" y="43" width="11" height="11" rx="2" fill="#2d303e"/>
    <rect x="328" y="57" width="11" height="11" rx="2" fill="#ff6e96"/>
    <rect x="328" y="71" width="11" height="11" rx="2" fill="#ff6e96"/>
    <rect x="328" y="85" width="11" height="11" rx="2" fill="#2d303e"/>
    <rect x="328" y="99" width="11" height="11" rx="2" fill="#2d303e"/>
    <rect x="342" y="15" width="11" height="11" rx="2" fill="#ff6e96"/>
    <rect x="342" y="29" width="11" height="11" rx="2" fill="#ff6e96"/>
    <rect x="342" y="43" width="11" height="11" rx="2" fill="#4a3b55"/>
    <rect x="342" y="57" width="11" height="11" rx="2" fill="#4a3b55"/>
    <rect x="342" y="71" width="11" height="11" rx="2" fill="#4a3b55"/>
    <rect x="342" y="85" width="11" height="11" rx="2" fill="#ff6e96"/>
    <rect x="342" y="99" width="11" height="11" rx="2" fill="#ff6e96"/>
    <rect x="356" y="15" width="11" height="11" rx="2" fill="#2d303e"/>
    <rect x="356" y="29" width="11" height="11" rx="2" fill="#ff6e96"/>
    <rect x="356" y="43" width="11" height="11" rx="2" fill="#ff6e96"/>
    <rect x="356" y="57" width="11" height="11" rx="2" fill="#ff6e96"/>
    <rect x="356" y="71" width="11" height="11" rx="2" fill="#ff6e96"/>
    <rect x="356" y="85" width="11" height="11" rx="2" fill="#ff6e96"/>
    <rect x="356" y="99" width="11" height="11" rx="2" fill="#ff6e96"/>
    <rect x="370" y="15" width="11" height="11" rx="2" fill="#7a4d74"/>
    <rect x="370" y="29" width="11" height="11" rx="2" fill="#2d303e"/>
    <rect x="370" y="43" width="11" height="11" rx="2" fill="#2d303e"/>
    <rect x="370" y="57" width="11" height="11" rx="2" fill="#2d303e"/>
    <rect x="370" y="71" width="11" height="11" rx="2" fill="#2d303e"/>
    <rect x="370" y="85" width="11" height="11" rx="2" fill="#2d303e"/>
    <rect x="370" y="99" width="11" height="11" rx="2" fill="#ff6e96"/>
    <rect x="384" y="15" width="11" height="11" rx="2" fill="#2d303e"/>
    <rect x="384" y="29" width="11" height="11" rx="2" fill="#2d303e"/>
    <rect x="384" y="43" width="11" height="11" rx="2" fill="#2d303e"/>
    <rect x="384" y="57" width="11" height="11" rx="2" fill="#2d303e"/>
    <rect x="384" y="71" width="11" height="11" rx="2" fill="#2d303e"/>
    <rect x="384" y="85" width="11" height="11" rx="2" fill="#2d303e"/>
    <rect x="384" y="99" width="11" height="11" rx="2" fill="#2d303e"/>
    <rect x="398" y="15" width="11" height="11" rx="2" fill="#ff6e96"/>
    <rect x="398" y="29" width="11" height="11" rx="2" fill="#4a3b55"/>
    <rect x="398" y="43" width="11" height="11" rx="2" fill="#ff6e96"/>
    <rect x="398" y="57" width="11" height="11" rx="2" fill="#2d303e"/>
    <rect x="398" y="71" width="11" height="11" rx="2" fill="#ff6e96"/>
    <rect x="398" y="85" width="11" height="11" rx="2" fill="#2d303e"/>
    <rect x="398" y="99" width="11" height="11" rx="2" fill="#2d303e"/>
    <rect x="412" y="15" width="11" height="11" rx="2" fill="#2d303e"/>
    <rect x="412" y="29" width="11" height="11" rx="2" fill="#4a3b55"/>
    <rect x="412" y="43" width="11" height="11" rx="2" fill="#2d303e"/>
    <rect x="412" y="57" width="11" height="11" rx="2" fill="#2d303e"/>
    <rect x="412" y="71" width="11" height="11" rx="2" fill="#2d303e"/>
    <rect x="412" y="85" width="11" height="11" rx="2" fill="#2d303e"/>
    <rect x="412" y="99" width="11" height="11" rx="2" fill="#2d303e"/>
    <rect x="426" y="15" width="11" height="11" rx="2" fill="#ff6e96"/>
    <rect x="426" y="29" width="11" height="11" rx="2" fill="#2d303e"/>
    <rect x="426" y="43" width="11" height="11" rx="2" fill="#2d303e"/>
    <rect x="426" y="57" width="11" height="11" rx="2" fill="#2d303e"/>
    <rect x="426" y="71" width="11" height="11" rx="2" fill="#2d303e"/>
    <rect x="426" y="85" width="11" height="11" rx="2" fill="#2d303e"/>
    <rect x="426" y="99" width="11" height="11" rx="2" fill="#2d303e"/>
    <rect x="440" y="15" width="11" height="11" rx="2" fill="#2d303e"/>
    <rect x="440" y="29" width="11" height="11" rx="2" fill="#2d303e"/>
    <rect x="440" y="43" width="11" height="11" rx="2" fill="#2d303e"/>
    <rect x="440" y="57" width="11" height="11" rx="2" fill="#2d303e"/>
    <rect x="440" y="71" width="11" height="11" rx="2" fill="#2d303e"/>
    <rect x="440" y="85" width="11" height="11" rx="2" fill="#2d303e"/>
    <rect x="440" y="99" width="11" height="11" rx="2" fill="#4a3b55"/>
    <rect x="454" y="15" width="11" height="11" rx="2" fill="#2d303e"/>
    <rect x="454" y="29" width="11" height="11" rx="2" fill="#ff6e96"/>
    <rect x="454" y="43" width="11" height="11" rx="2" fill="#4a3b55"/>
    <rect x="454" y="57" width="11" height="11" rx="2" fill="#4a3b55"/>
    <rect x="454" y="71" width="11" height="11" rx="2" fill="#2d303e"/>
    <rect x="454" y="85" width="11" height="11" rx="2" fill="#2d303e"/>
    <rect x="454" y="99" width="11" height="11" rx="2" fill="#2d303e"/>
    <rect x="468" y="15" width="11" height="11" rx="2" fill="#2d303e"/>
    <rect x="468" y="29" width="11" height="11" rx="2" fill="#2d303e"/>
    <rect x="468" y="43" width="11" height="11" rx="2" fill="#2d303e"/>
    <rect x="468" y="57" width="11" height="11" rx="2" fill="#2d303e"/>
    <rect x="468" y="71" width="11" height="11" rx="2" fill="#2d303e"/>
    <rect x="468" y="85" width="11" height="11" rx="2" fill="#2d303e"/>
    <rect x="468" y="99" width="11" height="11" rx="2" fill="#2d303e"/>
    <rect x="482" y="15" width="11" height="11" rx="2" fill="#2d303e"/>
    <rect x="482" y="29" width="11" height="11" rx="2" fill="#2d303e"/>
    <rect x="482" y="43" width="11" height="11" rx="2" fill="#2d303e"/>
    <rect x="482" y="57" width="11" height="11" rx="2" fill="#2d303e"/>
    <rect x="482" y="71" width="11" height="11" rx="2" fill="#2d303e"/>
    <rect x="482" y="85" width="11" height="11" rx="2" fill="#2d303e"/>
    <rect x="482" y="99" width="11" height="11" rx="2" fill="#2d303e"/>
    <rect x="496" y="15" width="11" height="11" rx="2" fill="#2d303e"/>
    <rect x="496" y="29" width="11" height="11" rx="2" fill="#2d303e"/>
    <rect x="496" y="43" width="11" height="11" rx="2" fill="#2d303e"/>
    <rect x="496" y="57" width="11" height="11" rx="2" fill="#2d303e"/>
    <rect x="496" y="71" width="11" height="11" rx="2" fill="#2d303e"/>
    <rect x="496" y="85" width="11" height="11" rx="2" fill="#2d303e"/>
    <rect x="496" y="99" width="11" height="11" rx="2" fill="#2d303e"/>
    <rect x="510" y="15" width="11" height="11" rx="2" fill="#2d303e"/>
    <rect x="510" y="29" width="11" height="11" rx="2" fill="#2d303e"/>
    <rect x="510" y="43" width="11" height="11" rx="2" fill="#2d303e"/>
    <rect x="510" y="57" width="11" height="11" rx="2" fill="#2d303e"/>
    <rect x="510" y="71" width="11" height="11" rx="2" fill="#2d303e"/>
    <rect x="510" y="85" width="11" height="11" rx="2" fill="#2d303e"/>
    <rect x="510" y="99" width="11" height="11" rx="2" fill="#2d303e"/>
    <rect x="524" y="15" width="11" height="11" rx="2" fill="#2d303e"/>
    <rect x="524" y="29" width="11" height="11" rx="2" fill="#2d303e"/>
    <rect x="524" y="43" width="11" height="11" rx="2" fill="#2d303e"/>
    <rect x="524" y="57" width="11" height="11" rx="2" fill="#2d303e"/>
    <rect x="524" y="71" width="11" height="11" rx="2" fill="#2d303e"/>
    <rect x="524" y="85" width="11" height="11" rx="2" fill="#2d303e"/>
    <rect x="524" y="99" width="11" height="11" rx="2" fill="#2d303e"/>
    <rect x="538" y="15" width="11" height="11" rx="2" fill="#2d303e"/>
    <rect x="538" y="29" width="11" height="11" rx="2" fill="#2d303e"/>
    <rect x="538" y="43" width="11" height="11" rx="2" fill="#2d303e"/>
    <rect x="538" y="57" width="11" height="11" rx="2" fill="#2d303e"/>
    <rect x="538" y="71" width="11" height="11" rx="2" fill="#2d303e"/>
    <rect x="538" y="85" width="11" height="11" rx="2" fill="#2d303e"/>
    <rect x="538" y="99" width="11" height="11" rx="2" fill="#2d303e"/>
    <rect x="552" y="15" width="11" height="11" rx="2" fill="#ff6e96"/>
    <rect x="552" y="29" width="11" height="11" rx="2" fill="#2d303e"/>
    <rect x="552" y="43" width="11" height="11" rx="2" fill="#2d303e"/>
    <rect x="552" y="57" width="11" height="11" rx="2" fill="#2d303e"/>
    <rect x="552" y="71" width="11" height="11" rx="2" fill="#2d303e"/>
    <rect x="552" y="85" width="11" height="11" rx="2" fill="#7a4d74"/>
    <rect x="552" y="99" width="11" height="11" rx="2" fill="#7a4d74"/>
    <rect x="566" y="15" width="11" height="11" rx="2" fill="#2d303e"/>
    <rect x="566" y="29" width="11" height="11" rx="2" fill="#2d303e"/>
    <rect x="566" y="43" width="11" height="11" rx="2" fill="#2d303e"/>
    <rect x="566" y="57" width="11" height="11" rx="2" fill="#2d303e"/>
    <rect x="566" y="71" width="11" height="11" rx="2" fill="#2d303e"/>
    <rect x="566" y="85" width="11" height="11" rx="2" fill="#2d303e"/>
    <rect x="566" y="99" width="11" height="11" rx="2" fill="#2d303e"/>
    <rect x="580" y="15" width="11" height="11" rx="2" fill="#ff6e96"/>
    <rect x="580" y="29" width="11" height="11" rx="2" fill="#ff6e96"/>
    <rect x="580" y="43" width="11" height="11" rx="2" fill="#2d303e"/>
    <rect x="580" y="57" width="11" height="11" rx="2" fill="#2d303e"/>
    <rect x="580" y="71" width="11" height="11" rx="2" fill="#ff6e96"/>
    <rect x="580" y="85" width="11" height="11" rx="2" fill="#2d303e"/>
    <rect x="580" y="99" width="11" height="11" rx="2" fill="#2d303e"/>
    <rect x="594" y="15" width="11" height="11" rx="2" fill="#2d303e"/>
    <rect x="594" y="29" width="11" height="11" rx="2" fill="#ff6e96"/>
    <rect x="594" y="43" width="11" height="11" rx="2" fill="#2d303e"/>
    <rect x="594" y="57" width="11" height="11" rx="2" fill="#2d303e"/>
    <rect x="594" y="71" width="11" height="11" rx="2" fill="#2d303e"/>
    <rect x="594" y="85" width="11" height="11" rx="2" fill="#2d303e"/>
    <rect x="594" y="99" width="11" height="11" rx="2" fill="#2d303e"/>
    <rect x="608" y="15" width="11" height="11" rx="2" fill="#2d303e"/>
    <rect x="608" y="29" width="11" height="11" rx="2" fill="#2d303e"/>
    <rect x="608" y="43" width="11" height="11" rx="2" fill="#2d303e"/>
    <rect x="608" y="57" width="11" height="11" rx="2" fill="#2d303e"/>
    <rect x="608" y="71" width="11" height="11" rx="2" fill="#2d303e"/>
    <rect x="608" y="85" width="11" height="11" rx="2" fill="#4a3b55"/>
    <rect x="608" y="99" width="11" height="11" rx="2" fill="#2d303e"/>
    <rect x="622" y="15" width="11" height="11" rx="2" fill="#4a3b55"/>
    <rect x="622" y="29" width="11" height="11" rx="2" fill="#ff6e96"/>
    <rect x="622" y="43" width="11" height="11" rx="2" fill="#2d303e"/>
    <rect x="622" y="57" width="11" height="11" rx="2" fill="#2d303e"/>
    <rect x="622" y="71" width="11" height="11" rx="2" fill="#2d303e"/>
    <rect x="622" y="85" width="11" height="11" rx="2" fill="#2d303e"/>
    <rect x="622" y="99" width="11" height="11" rx="2" fill="#2d303e"/>
    <rect x="636" y="15" width="11" height="11" rx="2" fill="#2d303e"/>
    <rect x="636" y="29" width="11" height="11" rx="2" fill="#ff6e96"/>
    <rect x="636" y="43" width="11" height="11" rx="2" fill="#2d303e"/>
    <rect x="636" y="57" width="11" height="11" rx="2" fill="#2d303e"/>
    <rect x="636" y="71" width="11" height="11" rx="2" fill="#2d303e"/>
    <rect x="636" y="85" width="11" height="11" rx="2" fill="#2d303e"/>
    <rect x="636" y="99" width="11" height="11" rx="2" fill="#2d303e"/>
    <rect x="650" y="15" width="11" height="11" rx="2" fill="#2d303e"/>
    <rect x="650" y="29" width="11" height="11" rx="2" fill="#2d303e"/>
    <rect x="650" y="43" width="11" height="11" rx="2" fill="#2d303e"/>
    <rect x="650" y="57" width="11" height="11" rx="2" fill="#7a4d74"/>
    <rect x="650" y="71" width="11" height="11" rx="2" fill="#2d303e"/>
    <rect x="650" y="85" width="11" height="11" rx="2" fill="#2d303e"/>
    <rect x="650" y="99" width="11" height="11" rx="2" fill="#ff6e96"/>
    <rect x="664" y="15" width="11" height="11" rx="2" fill="#ff6e96"/>
    <rect x="664" y="29" width="11" height="11" rx="2" fill="#2d303e"/>
    <rect x="664" y="43" width="11" height="11" rx="2" fill="#2d303e"/>
    <rect x="664" y="57" width="11" height="11" rx="2" fill="#2d303e"/>
    <rect x="664" y="71" width="11" height="11" rx="2" fill="#2d303e"/>
    <rect x="664" y="85" width="11" height="11" rx="2" fill="#2d303e"/>
    <rect x="664" y="99" width="11" height="11" rx="2" fill="#ff6e96"/>
    <rect x="678" y="15" width="11" height="11" rx="2" fill="#ff6e96"/>
    <rect x="678" y="29" width="11" height="11" rx="2" fill="#ff6e96"/>
    <rect x="678" y="43" width="11" height="11" rx="2" fill="#ff6e96"/>
    <rect x="678" y="57" width="11" height="11" rx="2" fill="#ff6e96"/>
    <rect x="678" y="71" width="11" height="11" rx="2" fill="#ff6e96"/>
    <rect x="678" y="85" width="11" height="11" rx="2" fill="#ff6e96"/>
    <rect x="678" y="99" width="11" height="11" rx="2" fill="#ff6e96"/>
    <rect x="692" y="15" width="11" height="11" rx="2" fill="#c15a88"/>
    <rect x="692" y="29" width="11" height="11" rx="2" fill="#ff6e96"/>
    <rect x="692" y="43" width="11" height="11" rx="2" fill="#2d303e"/>
    <rect x="692" y="57" width="11" height="11" rx="2" fill="#ff6e96"/>
    <rect x="692" y="71" width="11" height="11" rx="2" fill="#ff6e96"/>
    <rect x="692" y="85" width="11" height="11" rx="2" fill="#ff6e96"/>
    <rect x="692" y="99" width="11" height="11" rx="2" fill="#ff6e96"/>
    <rect x="706" y="15" width="11" height="11" rx="2" fill="#ff6e96"/>
    <rect x="706" y="29" width="11" height="11" rx="2" fill="#ff6e96"/>
    <rect x="706" y="43" width="11" height="11" rx="2" fill="#ff6e96"/>
    <rect x="706" y="57" width="11" height="11" rx="2" fill="#ff6e96"/>
    <rect x="706" y="71" width="11" height="11" rx="2" fill="#ff6e96"/>
    <rect x="706" y="85" width="11" height="11" rx="2" fill="#ff6e96"/>
    <rect x="706" y="99" width="11" height="11" rx="2" fill="#ff6e96"/>
    <rect x="720" y="15" width="11" height="11" rx="2" fill="#ff6e96"/>
    <rect x="720" y="29" width="11" height="11" rx="2" fill="#ff6e96"/>
    <rect x="720" y="43" width="11" height="11" rx="2" fill="#ff6e96"/>
    <rect x="720" y="57" width="11" height="11" rx="2" fill="#2d303e"/>
    <rect x="720" y="71" width="11" height="11" rx="2" fill="#4a3b55"/>
    <rect x="720" y="85" width="11" height="11" rx="2" fill="#2d303e"/>
    <rect x="720" y="99" width="11" height="11" rx="2" fill="#ff6e96"/>
    <rect x="734" y="15" width="11" height="11" rx="2" fill="#ff6e96"/>
    <rect x="734" y="29" width="11" height="11" rx="2" fill="#4a3b55"/>
    <rect x="734" y="43" width="11" height="11" rx="2" fill="#2d303e"/>
    <rect x="734" y="57" width="11" height="11" rx="2" fill="#2d303e"/>
    <rect x="734" y="71" width="11" height="11" rx="2" fill="#2d303e"/>
    <rect x="734" y="85" width="11" height="11" rx="2" fill="#2d303e"/>
    <rect x="734" y="99" width="11" height="11" rx="2" fill="#ff6e96"/>
    <rect x="748" y="15" width="11" height="11" rx="2" fill="#ff6e96"/>
    <rect x="748" y="29" width="11" height="11" rx="2" fill="#ff6e96"/>
    <rect x="748" y="43" width="11" height="11" rx="2" fill="#ff6e96"/>
    <rect x="748" y="57" width="11" height="11" rx="2" fill="#ff6e96"/>
    <rect x="748" y="71" width="11" height="11" rx="2" fill="#2d303e"/>
    <rect x="748" y="85" width="11" height="11" rx="2" fill="#ff6e96"/>
    <rect x="748" y="99" width="11" height="11" rx="2" fill="#ff6e96"/>
    <rect x="762" y="15" width="11" height="11" rx="2" fill="#ff6e96"/>
    <rect x="762" y="29" width="11" height="11" rx="2" fill="#2d303e"/>
    <rect x="762" y="43" width="11" height="11" rx="2" fill="#2d303e"/>
    <rect x="762" y="57" width="11" height="11" rx="2" fill="#2d303e"/>
    <rect x="762" y="71" width="11" height="11" rx="2" fill="#2d303e"/>
    <rect x="762" y="85" width="11" height="11" rx="2" fill="#2d303e"/>
    <rect x="762" y="99" width="11" height="11" rx="2" fill="#ff6e96"/>
  </g>
</svg>
